<?xml version="1.0" encoding="UTF-8" standalone="no" ?>
<!DOCTYPE svg PUBLIC "-//W3C//DTD SVG 1.1//EN" "http://www.w3.org/Graphics/SVG/1.1/DTD/svg11.dtd">
<svg xmlns="http://www.w3.org/2000/svg" xmlns:xlink="http://www.w3.org/1999/xlink" version="1.1" width="400" height="400" viewBox="0 0 400 400" xml:space="preserve">
<desc>Created with Fabric.js 3.6.2</desc>
<defs>
</defs>
<g transform="matrix(6.66 0 0 6.66 200 200)" id="path935"  >
<path style="stroke: none; stroke-width: 1.99999988; stroke-dasharray: none; stroke-linecap: round; stroke-dashoffset: 0; stroke-linejoin: round; stroke-miterlimit: 4; fill: rgb(249,207,61); fill-rule: nonzero; opacity: 1;" vector-effect="non-scaling-stroke"  paint-order="stroke"  transform=" translate(-16.01, -16.01)" d="M 11.996094 1.0039062 C 5.9328116 1.0039062 0.99610131 5.9386839 0.99609375 12.001953 C 0.99610131 18.06526 5.9328116 23.001953 11.996094 23.001953 C 14.670102 23.001953 17.122499 22.040573 19.03125 20.447266 L 29.291016 30.708984 C 30.235897 31.653866 31.653866 30.235898 30.708984 29.291016 L 20.447266 19.029297 C 22.03584 17.121901 22.994137 14.671545 22.994141 12.001953 C 22.994133 5.9386839 18.059376 1.0039062 11.996094 1.0039062 z M 11.996094 3.0039062 C 16.978497 3.003944 20.994135 7.0195531 20.994141 12.001953 C 20.994135 16.984391 16.978497 21.001953 11.996094 21.001953 C 7.0136911 21.001953 2.9960999 16.984391 2.9960938 12.001953 C 2.9960999 7.0195531 7.0136911 3.003944 11.996094 3.0039062 z" stroke-linecap="round" />
</g>
</svg>